:SAMPLES-PER-SECOND 30
:FULLY-SPECIFIED
:DEGREES
598
root  27.4839 39.0463 4.29676 164.883 -65.9925 -165.325
RightUpLeg  -13.4678 -14.7588 -1.12996
RightLeg  19.0587 1.97719 3.14299
RightFoot  -2.71727 -0.525291 6.71681
RightToes  -5.8209e-011 0 -3.6325e-017
Spine  5.95678 -1.37921 13.7122
Spine1  7.90902 0.146318 -1.82046
HEad  50.7016 -3.23294 -176.736
LeftShoulder1  8.49966 -11.824 -48.4016
LeftArm  -5.14784 9.30204 -28.1125
LeftForeArm  24.142 -15.9598 -5.00407
LeftHand  -0.244104 0.0205437 5.32207
RightShoulder  6.04867 9.46668 40.4692
RightArm  -4.66712 -12.7321 30.6687
RightForeArm  10.3675 11.5507 6.66638
RightHand  -0.491996 -0.509402 -11.6988
LeftUpLeg  -6.39145 -5.48453 6.05682
LeftLeg  53.7936 -2.8894 -3.72489
LeftFoot  2.50334 0.801985 -6.82604
LeftToes  1.76439e-010 -1.07097e-011 2.32476e-011
599
root  26.9192 39.3503 3.5008 165.78 -68.2886 -166.517
RightUpLeg  -10.6877 -14.9488 -2.52936
RightLeg  17.6592 0.175731 3.43812
RightFoot  -3.90021 -0.470629 6.81771
RightToes  -5.8209e-011 0 -3.6325e-017
Spine  6.18426 -0.702372 14.1302
Spine1  7.91246 1.16481 -3.10738
HEad  52.0998 -0.451138 -176.367
LeftShoulder1  8.54107 -11.8824 -48.4536
LeftArm  -3.57142 10.1124 -26.6698
LeftForeArm  23.1683 -17.065 -4.8379
LeftHand  -0.244104 0.0205437 5.32207
RightShoulder  6.08924 9.55215 40.4748
RightArm  -1.68888 -12.1758 30.7752
RightForeArm  9.32707 12.8859 6.79754
RightHand  -0.539317 -0.160223 -12.0018
LeftUpLeg  -10.6778 -1.49909 6.02001
LeftLeg  57.7609 0.132731 0.726946
LeftFoot  2.27977 0.536171 -4.54191
LeftToes  1.76439e-010 -1.07097e-011 2.32476e-011
600
root  26.3451 39.6421 2.75401 168.185 -70.3617 -169.071
RightUpLeg  -8.0757 -14.8274 -4.04927
RightLeg  15.9658 -1.58104 3.74987
RightFoot  -4.54716 -0.429953 6.71275
RightToes  -5.8209e-011 0 -3.6325e-017
Spine  6.29085 -0.13564 13.6358
Spine1  7.87186 1.85233 -3.96868
HEad  53.1735 1.51485 -176.34
LeftShoulder1  8.5661 -11.9023 -48.5336
LeftArm  -2.52366 11.5204 -25.4256
LeftForeArm  22.2002 -18.7012 -4.4311
LeftHand  -0.244104 0.0205437 5.32207
RightShoulder  6.07756 9.62605 40.1422
RightArm  2.16893 -11.0854 30.9628
RightForeArm  7.81144 14.56 6.72709
RightHand  -0.560847 0.028602 -12.0607
LeftUpLeg  -14.4618 3.06871 5.03112
LeftLeg  58.8904 1.86171 3.86031
LeftFoot  0.116393 0.210216 -2.13085
LeftToes  1.76439e-010 -1.07097e-011 2.32476e-011
601
root  25.7812 39.8639 2.08117 170.58 -72.6662 -171.367
RightUpLeg  -5.96135 -14.2207 -5.32259
RightLeg  14.5764 -3.89751 4.07916
RightFoot  -4.72472 -0.410666 6.53979
RightToes  -5.8209e-011 0 -3.6325e-017
Spine  6.41508 0.154844 13.0022
Spine1  7.50934 2.11576 -4.26447
HEad  53.6943 3.10812 -176.409
LeftShoulder1  8.56839 -11.939 -48.4309
LeftArm  -2.17039 13.2451 -24.7292
LeftForeArm  21.5 -20.0634 -4.11487
LeftHand  -0.244104 0.0205437 5.32207
RightShoulder  5.97356 9.55314 39.6315
RightArm  6.20584 -10.0754 31.1388
RightForeArm  5.55448 17.0125 6.15683
RightHand  -0.533915 -0.110392 -11.7711
LeftUpLeg  -17.9878 6.85267 3.62358
LeftLeg  57.3199 1.93522 3.8005
LeftFoot  -1.31286 0.175499 -1.92487
LeftToes  1.76439e-010 -1.07097e-011 2.32476e-011
602
root  25.2083 40.0258 1.48223 172.122 -74.9976 -172.837
RightUpLeg  -3.92919 -13.6657 -6.20996
RightLeg  13.4198 -6.31132 4.38473
RightFoot  -5.12661 -0.392686 6.58383
RightToes  -5.8209e-011 0 -3.6325e-017
Spine  6.61603 0.305504 12.7223
Spine1  7.07248 2.2288 -4.47208
HEad  53.9211 4.64968 -176.563
LeftShoulder1  8.61542 -12.0343 -48.3981
LeftArm  -2.27155 14.7258 -24.3639
LeftForeArm  21.1945 -20.6319 -4.00839
LeftHand  -0.244104 0.0205437 5.32207
RightShoulder  5.83157 9.37798 39.1748
RightArm  9.06385 -9.41593 31.0325
RightForeArm  2.96734 20.1175 5.26141
RightHand  -0.478022 -0.524122 -11.4026
LeftUpLeg  -20.8458 9.76865 2.03575
LeftLeg  53.5123 1.1028 2.09655
LeftFoot  -2.05602 0.211429 -2.44557
LeftToes  1.76439e-010 -1.07097e-011 2.32476e-011
603
root  24.6119 40.1457 0.941255 173.327 -77.1485 -174.083
RightUpLeg  -1.73284 -13.3624 -6.81073
RightLeg  12.198 -8.54373 4.63812
RightFoot  -5.81719 -0.361076 6.65308
RightToes  -5.8209e-011 0 -3.6325e-017
Spine  6.74827 0.436778 12.3727
Spine1  6.82846 2.26353 -4.52634
HEad  54.0941 6.01868 -176.75
LeftShoulder1  8.67756 -12.0994 -48.5454
LeftArm  -2.93254 15.7997 -24.2325
LeftForeArm  21.233 -20.2172 -4.05434
LeftHand  -0.244104 0.0205437 5.32207
RightShoulder  5.72201 9.23568 38.8365
RightArm  9.46294 -8.86737 30.5381
RightForeArm  1.52892 23.0381 4.90806
RightHand  -0.432922 -0.975792 -11.3377
LeftUpLeg  -22.8191 12.4131 0.222787
LeftLeg  47.804 0.418654 0.914239
LeftFoot  -3.07145 0.166121 -2.03481
LeftToes  1.76439e-010 -1.07097e-011 2.32476e-011
604
root  23.9867 40.2256 0.452989 174.671 -79.178 -175.397
RightUpLeg  0.298066 -12.8633 -7.06575
RightLeg  11.0172 -10.8888 4.71774
RightFoot  -6.36343 -0.329084 6.56623
RightToes  -5.8209e-011 0 -3.6325e-017
Spine  6.65798 0.530127 11.81
Spine1  6.7048 2.18002 -4.34763
HEad  54.2329 7.13607 -176.704
LeftShoulder1  8.68281 -12.0748 -48.652
LeftArm  -4.16634 16.6039 -24.4242
LeftForeArm  21.5338 -18.8691 -4.25875
LeftHand  -0.244104 0.0205437 5.32207
RightShoulder  5.65636 9.1509 38.6278
RightArm  8.05326 -8.30239 29.8835
RightForeArm  1.34128 25.2231 5.32261
RightHand  -0.423888 -1.21775 -11.7127
LeftUpLeg  -23.9354 15.0731 -1.7947
LeftLeg  40.1658 0.323566 0.658499
LeftFoot  -3.89075 0.135843 -1.73315
LeftToes  1.76439e-010 -1.07097e-011 2.32476e-011
